<?xml version="1.0" encoding="iso-8859-1"?>
<!-- Generator: Adobe Illustrator 12.0.0, SVG Export Plug-In . SVG Version: 6.00 Build 51448)  -->
<!DOCTYPE svg PUBLIC "-//W3C//DTD SVG 1.1//EN" "http://www.w3.org/Graphics/SVG/1.1/DTD/svg11.dtd" [
	<!ENTITY ns_svg "http://www.w3.org/2000/svg">
	<!ENTITY ns_xlink "http://www.w3.org/1999/xlink">
]>
<svg  version="1.1"
	 id="svg7723" xmlns:inkscape="http://www.inkscape.org/namespaces/inkscape" xmlns:sodipodi="http://sodipodi.sourceforge.net/DTD/sodipodi-0.dtd" xmlns:svg="http://www.w3.org/2000/svg" xmlns:rdf="http://www.w3.org/1999/02/22-rdf-syntax-ns#" xmlns:cc="http://creativecommons.org/ns#" xmlns:dc="http://purl.org/dc/elements/1.1/" inkscape:version="0.48.3.1 r9886" sodipodi:docname="Bitcoin_logo.svg"
	 xmlns="&ns_svg;" xmlns:xlink="&ns_xlink;" width="60" height="60" viewBox="0 0 60 60"
	 style="overflow:visible;enable-background:new 0 0 60 60;" xml:space="preserve">
<defs>
	
	
		<inkscape:perspective  inkscape:persp3d-origin="372.04724 : 350.78739 : 1" sodipodi:type="inkscape:persp3d" inkscape:vp_x="0 : 526.18109 : 1" inkscape:vp_y="0 : 1000 : 0" inkscape:vp_z="744.09448 : 526.18109 : 1" id="perspective7731">
		</inkscape:perspective>
	
		<inkscape:perspective  inkscape:persp3d-origin="0.5 : 0.33333333 : 1" sodipodi:type="inkscape:persp3d" inkscape:vp_x="0 : 0.5 : 1" inkscape:vp_y="0 : 1000 : 0" inkscape:vp_z="1 : 0.5 : 1" id="perspective7704">
		</inkscape:perspective>
</defs>
<sodipodi:namedview  inkscape:document-units="px" inkscape:window-maximized="0" pagecolor="#ffffff" bordercolor="#666666" borderopacity="1.0" inkscape:zoom="2.8" inkscape:cx="99.532722" inkscape:cy="-10.892329" showgrid="false" id="base" inkscape:pageopacity="0.0" inkscape:pageshadow="2" inkscape:current-layer="layer1" inkscape:window-width="884" inkscape:window-height="608" inkscape:window-x="1864" inkscape:window-y="220">
	</sodipodi:namedview>
<g id="layer1" transform="translate(-289.60744,-341.50536)" inkscape:label="Layer 1" inkscape:groupmode="layer">
	<g id="g97" transform="matrix(0.61129216,0,0,0.61129216,170.80346,315.53734)">
		<g id="g99">
			<g id="g101">
				<path id="path103" inkscape:connector-curvature="0" style="fill:#F7931A;" d="M280.234,98.556
					c-4.901,19.672-24.829,31.642-44.499,26.738c-19.665-4.901-31.637-24.831-26.731-44.498
					c4.903-19.672,24.826-31.645,44.492-26.74C273.17,58.959,285.139,78.885,280.234,98.556z"/>
				<g id="g105">
					<g id="g107">
						<path id="path109" inkscape:connector-curvature="0" style="fill:#FFFFFF;" d="M260.803,84.444
							c0.728-4.887-2.987-7.513-8.077-9.265l1.652-6.619l-4.029-1.004l-1.607,6.445c-1.058-0.264-2.145-0.513-3.227-0.76l1.62-6.487
							l-4.026-1.004l-1.651,6.616c-0.877-0.199-1.739-0.397-2.573-0.603l0.004-0.021l-5.556-1.388l-1.071,4.304
							c0,0,2.989,0.685,2.926,0.727c1.633,0.407,1.926,1.487,1.878,2.343l-1.879,7.541c0.111,0.026,0.256,0.069,0.419,0.133
							c-0.135-0.034-0.279-0.069-0.426-0.106l-2.634,10.561c-0.2,0.498-0.706,1.238-1.848,0.957c0.042,0.059-2.927-0.73-2.927-0.73
							l-2,4.615l5.242,1.304c0.976,0.244,1.931,0.502,2.872,0.741l-1.668,6.692l4.024,1.006l1.651-6.622
							c1.102,0.299,2.167,0.572,3.211,0.831l-1.645,6.593l4.027,1.006l1.669-6.686c6.866,1.302,12.033,0.778,14.207-5.436
							c1.754-5.003-0.083-7.887-3.697-9.769C258.292,89.75,260.273,88.02,260.803,84.444L260.803,84.444z M251.598,97.348
							c-1.246,5.003-9.67,2.299-12.401,1.62l2.211-8.866C244.143,90.782,252.899,92.132,251.598,97.348z M252.844,84.371
							c-1.137,4.548-8.147,2.24-10.422,1.672l2.003-8.044C246.702,78.567,254.027,79.623,252.844,84.371z"/>
					</g>
				</g>
			</g>
		</g>
	</g>
</g>
</svg>
